<svg width="64" height="54" viewBox="0 0 64 54" fill="none" xmlns="http://www.w3.org/2000/svg">
<path d="M48.0684 47.3044C50.0625 44.3379 50.642 41.7165 50.642 37.8664C50.642 27.5913 42.3539 19.262 32.1326 19.262C21.9113 19.262 13.6256 27.5913 13.6256 37.8664C13.6256 41.7165 14.1321 44.2155 16.1238 47.1845M54.9833 32.0606C55.0344 32.9246 54.9931 33.7959 54.9931 34.6648C54.9906 35.1519 54.9882 35.639 54.9906 36.1285C54.9955 38.4366 55.2925 38.5737 57.423 37.4845C59.0835 36.6352 60.7952 35.8911 62.4898 35.1078C62.7089 35.0075 63.0815 35.0858 62.9841 34.6722C62.9208 34.4078 62.7382 34.234 62.4533 34.1215C60.2693 33.2648 58.1193 32.3347 56.0327 31.2577C55.3339 30.8979 54.9322 31.2039 54.9833 32.0606ZM1.50769 35.1054C2.86875 35.7344 4.20545 36.4247 5.59573 36.9778C8.97524 38.3265 8.98741 38.302 9.01663 34.7064C9.01663 33.8351 8.98498 32.9637 9.02637 32.0948C9.07019 31.1158 8.60758 30.9102 7.84062 31.3091C5.79782 32.3714 3.68927 33.2844 1.54665 34.119C1.2569 34.2316 1.08647 34.3956 1.01829 34.6673C0.911162 35.0956 1.30073 35.0099 1.50769 35.1054ZM51.7669 21.5627C52.5266 22.5344 52.8212 22.0963 53.1645 21.3131C54.1701 19.0099 55.1781 16.7091 56.3127 14.1097C53.369 14.6531 50.905 15.85 48.29 16.5182C47.5791 16.7018 47.8907 17.1742 48.273 17.5927C49.466 18.8899 50.681 20.1774 51.7669 21.5627ZM11.9822 21.8467C13.3214 20.3977 14.5996 18.8948 15.8925 17.4042C16.2675 16.971 16.1969 16.643 15.6101 16.4619C13.0779 15.6762 10.5506 14.8832 7.60931 13.9629C8.8121 16.6871 9.86151 19.0343 10.8841 21.3963C11.1252 21.9519 11.3662 22.5124 11.9822 21.8467ZM29.2596 11.5275C31.1977 11.5104 33.1382 11.5177 35.0763 11.5275C35.6826 11.5324 35.8555 11.2632 35.6169 10.7296C34.5212 8.29909 33.4182 5.87106 32.1156 3C30.8106 5.88819 29.6979 8.31133 28.6265 10.7541C28.3928 11.2876 28.6801 11.5324 29.2596 11.5275ZM8.64646 52.9975C21.6288 39.9493 42.6388 39.9493 55.6187 53L8.64646 52.9975Z" stroke="#A6A6A6" stroke-width="2" stroke-miterlimit="10"/>
</svg>
