<svg width="84" height="84" viewBox="0 0 84 84" fill="none" xmlns="http://www.w3.org/2000/svg">
<path d="M83 42C83 64.6435 64.643 83 41.9987 83C19.3545 83 1 64.6435 1 42C1 19.3565 19.3545 1 41.9987 1C64.643 1 83 19.3565 83 42Z" stroke="transparent" stroke-width="2" stroke-miterlimit="10"/>
<path d="M83 42C83 64.6435 64.643 83 41.9987 83C19.3545 83 1 64.6435 1 42C1 19.3565 19.3545 1 41.9987 1C64.643 1 83 19.3565 83 42Z" stroke="transparent" stroke-width="2" stroke-miterlimit="10"/>
<path d="M65.6796 41.0219C65.6643 37.4583 65.6694 37.4405 68.9007 38.7299C70.246 39.268 71.5608 39.8848 72.8757 40.4991C73.627 40.8493 73.6651 41.3113 72.9036 41.6996C70.8831 42.7327 68.8321 43.6998 66.6974 44.479C65.9816 44.7404 65.6237 44.5247 65.6694 43.6947C65.7176 42.8063 65.6796 41.9129 65.6796 41.0219ZM21.1044 28.2216C20.6932 28.1277 20.5485 27.9221 20.4089 27.5972C19.5636 25.6504 18.6752 23.7188 17.7868 21.7898C17.6066 21.4014 17.3959 20.9649 17.6751 20.6273C17.9721 20.2643 18.4671 20.4496 18.8529 20.5689C20.9241 21.2111 22.9929 21.871 25.054 22.5487C25.4398 22.6782 25.9627 22.9421 25.5439 23.4345C24.2112 25.0108 22.8152 26.5312 21.4318 28.0643C21.343 28.1633 21.1754 28.1887 21.1044 28.2216ZM18.3275 62.1501C17.368 62.2847 17.439 61.6933 17.6116 61.2846C18.533 59.0967 19.4748 56.9138 20.4977 54.769C20.8048 54.1243 21.3988 54.3933 21.7846 54.8121C22.9751 56.1066 24.1402 57.4265 25.3053 58.7413C25.7342 59.2261 25.7393 59.8023 25.1276 60.0104C22.8355 60.7871 20.5079 61.4724 18.3275 62.1501ZM65.7481 20.3608C66.5984 20.3963 66.8116 20.678 66.4487 21.4573C65.5323 23.4193 64.6693 25.4068 63.7733 27.379C63.4636 28.0567 63.0854 28.6582 62.3214 27.8054C61.0802 26.4195 59.8592 25.0184 58.618 23.6351C58.2906 23.2721 58.0621 22.9193 58.6992 22.7035C61.0421 21.9065 63.3976 21.1375 65.7481 20.3608ZM65.8902 62.2212C63.4281 61.4471 61.1461 60.7617 58.8896 60.0003C58.3058 59.8048 58.1814 59.3327 58.6688 58.7997C59.8491 57.5001 60.9811 56.1599 62.1818 54.8781C62.7732 54.2486 63.4002 54.2766 63.786 55.137C64.6744 57.127 65.4917 59.15 66.4309 61.1145C66.8929 62.0715 66.4512 62.1628 65.8902 62.2212ZM18.5204 41.0575C18.5204 41.6844 18.5229 42.3088 18.5204 42.9358C18.5153 44.809 18.3909 44.941 16.7156 44.2506C14.8677 43.4891 13.0706 42.6109 11.2557 41.7732C10.941 41.6286 10.5145 41.5524 10.5425 41.0651C10.5678 40.6767 10.9308 40.5955 11.1973 40.4737C13.1671 39.5802 15.1444 38.7122 17.1167 37.8212C18.0558 37.3973 18.6117 37.4887 18.528 38.7121C18.4747 39.4914 18.5178 40.2757 18.5204 41.0575ZM42.0733 17.6271C41.9159 17.6296 41.7586 17.6296 41.6012 17.6296C38.144 17.6296 38.1415 17.6296 39.5248 14.5101C40.134 13.1344 40.7305 11.7511 41.3905 10.3982C41.5479 10.0733 41.6088 9.5276 42.185 9.56059C42.6597 9.58597 42.7307 10.0454 42.8653 10.3373C43.7968 12.3603 44.6675 14.4137 45.5813 16.4468C45.9925 17.3606 45.4518 17.5789 44.7411 17.6144C43.8552 17.6601 42.9617 17.6271 42.0733 17.6271Z" stroke="#B0B0B0" stroke-width="2" stroke-miterlimit="10"/>
<path d="M60.4875 41.3278C60.4875 51.562 52.1898 59.8595 41.9553 59.8595C31.7208 59.8595 23.4257 51.562 23.4257 41.3278C23.4257 31.0937 31.7209 22.7962 41.9553 22.7962C52.1898 22.7962 60.4875 31.0937 60.4875 41.3278Z" stroke="#B0B0B0" stroke-width="2" stroke-miterlimit="10"/>
<path  d="M42.311 65.0286C42.4684 65.0261 42.6258 65.0261 42.7831 65.0261C46.2403 65.0261 46.2429 65.0261 44.8595 68.1481C44.2503 69.5213 43.6538 70.9046 42.9938 72.2575C42.8365 72.5824 42.7755 73.1281 42.1993 73.0976C41.7247 73.0697 41.6536 72.6103 41.5191 72.3209C40.5875 70.2954 39.7169 68.242 38.8031 66.2089C38.3919 65.2951 38.9325 65.0768 39.6433 65.0413C40.5291 64.9956 41.4226 65.0286 42.311 65.0286Z" stroke="#B0B0B0" stroke-width="2" stroke-miterlimit="10"/>
</svg>
