<svg width="19" height="23" viewBox="0 0 19 23" fill="none" xmlns="http://www.w3.org/2000/svg">
<path d="M11.0788 14.6332C12.753 12.9591 15.0625 11.9203 17.6141 11.9203L17.6141 13.6852C13.4892 13.6852 10.1308 17.0436 10.1308 21.1685L8.36585 21.1685C8.36585 18.6169 9.40464 16.3074 11.0788 14.6332Z" fill="#F7A414"/>
<path d="M0.882389 11.9199C3.3533 11.9199 5.67798 12.8831 7.42274 14.6278C9.16751 16.3726 10.1307 18.6973 10.1307 21.1682L8.36572 21.1682C8.36572 19.1713 7.58411 17.2904 6.17216 15.8784C4.76021 14.4665 2.87929 13.6848 0.882389 13.6848L0.882389 11.9199Z" fill="#F7A414"/>
<path d="M11.0788 4.9301C12.753 3.25593 15.0625 2.21714 17.6141 2.21714L17.6141 3.98208C13.4892 3.98208 10.1308 7.3405 10.1308 11.4654L8.36585 11.4654C8.36585 8.91382 9.40464 6.60427 11.0788 4.9301Z" fill="#F7A414"/>
<path d="M0.882389 2.21678C3.3533 2.21678 5.67798 3.17993 7.42274 4.92469C9.16751 6.66946 10.1307 8.99413 10.1307 11.465L8.36572 11.465C8.36572 9.46815 7.58411 7.58723 6.17216 6.17528C4.76021 4.76333 2.87929 3.98171 0.882389 3.98171L0.882389 2.21678Z" fill="#F7A414"/>
</svg>
