<svg width="78" height="78" viewBox="0 0 78 78" fill="none" xmlns="http://www.w3.org/2000/svg">
<path d="M77 39C77 59.9868 59.9868 77 39 77C18.0132 77 1 59.9868 1 39C1 18.0132 18.0132 1 39 1C59.9868 1 77 18.0132 77 39Z" fill="#FFCC4D" stroke="white" stroke-width="2"/>
<path d="M22.7826 51.1788C22.8801 51.5666 25.3133 60.6666 39.0001 60.6666C52.6891 60.6666 55.1201 51.5666 55.2176 51.1788C55.3368 50.7086 55.1244 50.2211 54.7041 49.9784C54.2816 49.7379 53.7529 49.8094 53.4041 50.1453C53.3629 50.1864 49.1704 54.1666 39.0001 54.1666C28.8298 54.1666 24.6351 50.1864 24.5961 50.1474C24.3881 49.9416 24.1108 49.8333 23.8334 49.8333C23.6514 49.8333 23.4673 49.8788 23.3004 49.9719C22.8758 50.2146 22.6634 50.7064 22.7826 51.1788Z" fill="#664500"/>
<path d="M25.9999 36.8334C28.9915 36.8334 31.4166 33.4382 31.4166 29.2501C31.4166 25.0619 28.9915 21.6667 25.9999 21.6667C23.0084 21.6667 20.5833 25.0619 20.5833 29.2501C20.5833 33.4382 23.0084 36.8334 25.9999 36.8334Z" fill="#664500"/>
<path d="M51.9999 36.8334C54.9915 36.8334 57.4166 33.4382 57.4166 29.2501C57.4166 25.0619 54.9915 21.6667 51.9999 21.6667C49.0084 21.6667 46.5833 25.0619 46.5833 29.2501C46.5833 33.4382 49.0084 36.8334 51.9999 36.8334Z" fill="#664500"/>
</svg>
