<svg width="78" height="78" viewBox="0 0 78 78" fill="none" xmlns="http://www.w3.org/2000/svg">
<path d="M77 39C77 59.9865 59.9865 77 39 77C18.0156 77 1 59.9865 1 39C1 18.0156 18.0156 1 39 1C59.9865 1 77 18.0156 77 39Z" fill="#FFCC4D" stroke="white" stroke-width="2"/>
<path d="M24.9167 43.3334C27.9082 43.3334 30.3333 39.9382 30.3333 35.75C30.3333 31.5619 27.9082 28.1667 24.9167 28.1667C21.9251 28.1667 19.5 31.5619 19.5 35.75C19.5 39.9382 21.9251 43.3334 24.9167 43.3334Z" fill="#664500"/>
<path d="M53.0834 43.3334C56.075 43.3334 58.5001 39.9382 58.5001 35.75C58.5001 31.5619 56.075 28.1667 53.0834 28.1667C50.0919 28.1667 47.6667 31.5619 47.6667 35.75C47.6667 39.9382 50.0919 43.3334 53.0834 43.3334Z" fill="#664500"/>
<path d="M54.1667 56.3333H23.8334C22.6374 56.3333 21.6667 55.3648 21.6667 54.1667C21.6667 52.9685 22.6374 52 23.8334 52H54.1667C55.3649 52 56.3334 52.9685 56.3334 54.1667C56.3334 55.3648 55.3649 56.3333 54.1667 56.3333Z" fill="#664500"/>
</svg>
