<svg width="78" height="78" viewBox="0 0 78 78" fill="none" xmlns="http://www.w3.org/2000/svg">
<path d="M77 39C77 59.9865 59.9865 77 39 77C18.0156 77 1 59.9865 1 39C1 18.0156 18.0156 1 39 1C59.9865 1 77 18.0156 77 39Z" fill="#FFCC4D" stroke="white" stroke-width="2"/>
<path d="M61.6568 38.5601C61.5268 38.2676 58.4089 31.4166 51.9999 31.4166C45.5931 31.4166 42.4731 38.2676 42.3431 38.5601C42.1438 39.0086 42.2738 39.533 42.6573 39.8406C43.0364 40.1483 43.5803 40.1591 43.9789 39.871C44.0049 39.8515 46.7133 37.9166 51.9999 37.9166C57.2563 37.9166 59.9603 39.8255 60.0209 39.8688C60.2116 40.0118 60.4413 40.0833 60.6666 40.0833C60.9049 40.0833 61.1454 40.0031 61.3426 39.8471C61.7261 39.5395 61.8583 39.0108 61.6568 38.5601ZM37.8234 38.5601C37.6934 38.2676 34.5756 31.4166 28.1666 31.4166C21.7598 31.4166 18.6398 38.2676 18.5098 38.5601C18.3104 39.0086 18.4404 39.533 18.8218 39.8406C19.2031 40.1483 19.7469 40.1591 20.1434 39.871C20.1716 39.8515 22.8778 37.9166 28.1666 37.9166C33.4229 37.9166 36.1269 39.8255 36.1876 39.8688C36.3804 40.0118 36.6079 40.0833 36.8333 40.0833C37.0716 40.0833 37.3121 40.0031 37.5093 39.8471C37.8949 39.5395 38.0228 39.0108 37.8234 38.5601ZM28.1666 60.6666C28.1666 60.6666 30.3333 52 38.9999 52C47.6666 52 49.8333 60.6666 49.8333 60.6666C49.8333 60.6666 47.6666 58.5 38.9999 58.5C30.3333 58.5 28.1666 60.6666 28.1666 60.6666Z" fill="#664500"/>
<path d="M23.8334 23.8333C23.8334 29.8176 18.9844 34.6666 13.0001 34.6666C7.01792 34.6666 2.16675 29.8176 2.16675 23.8333C2.16675 17.849 10.8334 2.16663 13.0001 2.16663C15.1667 2.16663 23.8334 17.849 23.8334 23.8333Z" fill="#5DADEC"/>
</svg>
