<svg width="78" height="78" viewBox="0 0 78 78" fill="none" xmlns="http://www.w3.org/2000/svg">
<path d="M77 39C77 59.9865 59.9865 77 39 77C18.0135 77 1 59.9865 1 39C1 18.0135 18.0135 1 39 1C59.9865 1 77 18.0135 77 39Z" fill="#FFCC4D" stroke="white" stroke-width="2"/>
<path d="M47.6666 58.5001C47.6666 64.4866 43.7861 65.0001 38.9999 65.0001C34.2116 65.0001 30.3332 64.4866 30.3332 58.5001C30.3332 52.5179 34.2116 45.5001 38.9999 45.5001C43.7861 45.5001 47.6666 52.5179 47.6666 58.5001ZM64.9999 32.5001C64.7312 32.5001 64.4582 32.4503 64.1961 32.3441C52.8666 27.8136 48.2234 20.9886 48.0306 20.7004C47.3654 19.7038 47.6341 18.3583 48.6307 17.6953C49.6252 17.0323 50.9642 17.2966 51.6316 18.2889C51.6727 18.3474 55.8132 24.3231 65.8037 28.3184C66.9152 28.7648 67.4569 30.0236 67.0127 31.1351C66.6726 31.9844 65.8579 32.5001 64.9999 32.5001ZM12.9999 32.5001C12.1397 32.5001 11.3272 31.9844 10.9871 31.1373C10.5429 30.0258 11.0824 28.7648 12.1939 28.3206C22.1866 24.3253 26.3271 18.3496 26.3682 18.2911C27.0356 17.3031 28.3811 17.0409 29.3734 17.7061C30.3636 18.3734 30.6322 19.7103 29.9692 20.7026C29.7764 20.9908 25.1332 27.8158 13.8059 32.3463C13.5416 32.4503 13.2686 32.5001 12.9999 32.5001Z" fill="#664500"/>
<path d="M51.9999 34.6667H60.6666V75.8334L51.9999 75.7337V34.6667ZM17.3333 75.8334L25.9999 75.7337V34.6667H17.3333V75.8334Z" fill="#5DADEC"/>
<path d="M32.4977 39.0001C32.1727 39.0001 31.8412 38.9264 31.5314 38.7726C23.9221 34.9679 16.2131 38.7336 16.1372 38.7726C15.0647 39.3121 13.7647 38.8723 13.2296 37.8041C12.6944 36.7338 13.1277 35.4316 14.1981 34.8964C14.5924 34.7014 23.9437 30.1363 33.4706 34.8964C34.5409 35.4316 34.9742 36.7338 34.4391 37.8041C34.0577 38.5624 33.2929 39.0001 32.4977 39.0001ZM62.8311 39.0001C62.5061 39.0001 62.1746 38.9264 61.8647 38.7726C54.2532 34.9679 46.5464 38.7336 46.4706 38.7726C45.4002 39.3099 44.1002 38.8744 43.5629 37.8041C43.0277 36.7338 43.4611 35.4316 44.5314 34.8964C44.9257 34.7014 54.2836 30.1384 63.8039 34.8964C64.8742 35.4316 65.3076 36.7338 64.7724 37.8041C64.3911 38.5624 63.6262 39.0001 62.8311 39.0001Z" fill="#664500"/>
<path d="M39 77.9999C60.5391 77.9999 78 76.0598 78 73.6666C78 71.2734 60.5391 69.3333 39 69.3333C17.4609 69.3333 0 71.2734 0 73.6666C0 76.0598 17.4609 77.9999 39 77.9999Z" fill="#5DADEC"/>
<path d="M39 62.8334C42.5899 62.8334 45.5 60.8933 45.5 58.5001C45.5 56.1068 42.5899 54.1667 39 54.1667C35.4101 54.1667 32.5 56.1068 32.5 58.5001C32.5 60.8933 35.4101 62.8334 39 62.8334Z" fill="#E75A70"/>
</svg>
