<svg width="68" height="69" viewBox="0 0 68 69" fill="none" xmlns="http://www.w3.org/2000/svg">
<path d="M67.6341 34.5707C67.6341 53.1379 52.5977 68.2351 33.9696 68.2351C15.4024 68.2351 0.305176 53.1988 0.305176 34.5707C0.305176 16.0035 15.3416 0.90625 33.9696 0.90625C52.5977 0.967126 67.6341 16.0035 67.6341 34.5707Z" fill="url(#paint0_radial_127_3687)"/>
<path d="M65.9904 34.5707C65.9904 52.2247 51.6846 66.5306 34.0305 66.5306C16.3765 66.5306 2.00977 52.2856 2.00977 34.5707C2.00977 16.9166 16.3156 2.61078 33.9697 2.61078C51.6237 2.61078 65.9904 16.9166 65.9904 34.5707Z" fill="url(#paint1_radial_127_3687)"/>
<path opacity="0.032258" d="M60.8767 36.2754C60.8767 53.1381 47.9101 65.1915 31.0475 65.1915C14.1848 65.1915 2.49663 48.4506 3.89678 34.3274C5.29693 20.2041 15.1588 8.6377 32.0215 8.6377C48.8842 8.6377 60.8767 19.4127 60.8767 36.2754Z" fill="#F9F9F9"/>
<path opacity="0.064516" d="M60.755 36.0926C60.755 52.8335 47.8493 64.8869 31.1084 64.8869C14.4284 64.9478 2.74021 48.4504 4.07948 34.3881C5.41875 20.3257 15.3415 8.75928 32.0824 8.75928C48.8842 8.75928 60.755 19.3517 60.755 36.0926Z" fill="#F3F3F3"/>
<path opacity="0.096774" d="M60.6334 35.971C60.6334 52.5902 47.8495 64.7045 31.2303 64.7045C14.6111 64.7045 2.98382 48.5115 4.26222 34.4491C5.60149 20.3868 15.5852 8.82031 32.2043 8.82031C48.8235 8.82031 60.6334 19.3519 60.6334 35.971Z" fill="#EDEDED"/>
<path opacity="0.129" d="M60.5723 35.849C60.5723 52.3464 47.9101 64.5216 31.4127 64.5216C14.9153 64.5216 3.34883 48.5721 4.56635 34.5706C5.78387 20.5692 15.8284 9.00271 32.3258 9.00271C48.8232 8.94183 60.5723 19.2908 60.5723 35.849Z" fill="#E6E6E7"/>
<path opacity="0.1613" d="M60.4507 35.6666C60.4507 52.0423 47.9102 64.2175 31.5346 64.2175C15.1589 64.2175 3.59249 48.5723 4.81001 34.5709C6.02754 20.5694 16.0721 9.00293 32.4477 9.00293C48.8234 9.00293 60.4507 19.291 60.4507 35.6666Z" fill="#E0E0E1"/>
<path opacity="0.1935" d="M60.3289 35.5446C60.3289 51.7985 47.9102 64.0346 31.5954 64.0346C15.3415 64.0346 3.83597 48.633 4.99261 34.6924C6.14925 20.6909 16.2547 9.18533 32.5086 9.18533C48.8233 9.12445 60.3289 19.2907 60.3289 35.5446Z" fill="#DADADA"/>
<path opacity="0.2258" d="M60.2072 35.4232C60.2072 51.6162 47.9102 63.7914 31.7172 63.7914C15.5242 63.7914 4.07949 48.6942 5.17526 34.7536C6.27102 20.813 16.4373 9.24652 32.5695 9.24652C48.8234 9.24652 60.2072 19.2302 60.2072 35.4232Z" fill="#D4D4D4"/>
<path opacity="0.2581" d="M60.0854 35.2403C60.0854 51.3116 47.9102 63.5477 31.839 63.5477C15.7677 63.5477 4.38387 48.6939 5.41877 34.7533C6.45366 20.8127 16.6808 9.30713 32.7521 9.30713C48.7625 9.30713 60.0854 19.2299 60.0854 35.2403Z" fill="#CECECE"/>
<path opacity="0.2903" d="M59.9636 35.1184C59.9636 51.0679 47.8493 63.304 31.9606 63.304C16.0111 63.304 4.62729 48.7546 5.66218 34.814C6.6362 20.9343 16.9242 9.42871 32.8129 9.42871C48.7624 9.42871 59.9636 19.1689 59.9636 35.1184Z" fill="#C8C8C8"/>
<path opacity="0.3226" d="M59.842 34.9968C59.842 50.8246 47.8494 63.1215 32.0217 63.1215C16.1939 63.1215 4.87096 48.8157 5.84498 34.9359C6.81899 20.9953 17.107 9.48975 32.9348 9.48975C48.7626 9.48975 59.842 19.169 59.842 34.9968Z" fill="#C2C1C2"/>
<path opacity="0.3548" d="M59.7202 34.814C59.7202 50.52 47.8493 62.817 32.1433 62.817C16.4373 62.817 5.17526 48.8155 6.0884 34.9358C7.00154 21.1169 17.3505 9.61133 33.0565 9.61133C48.7625 9.61133 59.7202 19.108 59.7202 34.814Z" fill="#BCBBBC"/>
<path opacity="0.3871" d="M59.6593 34.6924C59.6593 50.2767 47.9102 62.6345 32.326 62.6345C16.7417 62.6345 5.47967 48.8766 6.33193 35.0577C7.1842 21.178 17.5331 9.73328 33.1782 9.73328C48.7625 9.73328 59.6593 19.1082 59.6593 34.6924Z" fill="#B5B5B6"/>
<path opacity="0.4194" d="M59.5375 34.5709C59.5375 50.0334 47.9101 62.3913 32.4476 62.3913C16.9851 62.3913 5.78395 48.9377 6.57534 35.1188C7.4276 21.2999 17.7765 9.79437 33.2999 9.79437C48.7015 9.79437 59.5375 19.0475 59.5375 34.5709Z" fill="#AFAFB0"/>
<path opacity="0.4516" d="M59.4157 34.3877C59.4157 49.7284 47.9101 62.1472 32.5085 62.1472C17.1678 62.1472 5.96657 48.9371 6.75796 35.1791C7.54935 21.3602 17.9591 9.91553 33.3608 9.91553C48.7015 9.91553 59.4157 19.0469 59.4157 34.3877Z" fill="#A9A9AA"/>
<path opacity="0.4839" d="M59.294 34.2661C59.294 49.4851 47.8493 61.9038 32.6303 61.9038C17.4113 61.9038 6.27096 48.9981 7.00148 35.2401C7.73199 21.4821 18.2027 9.97656 33.4825 9.97656C48.7015 9.97656 59.294 19.0471 59.294 34.2661Z" fill="#A3A3A4"/>
<path opacity="0.5161" d="M59.1723 34.1446C59.1723 49.3027 47.8494 61.7214 32.7521 61.7214C17.594 61.7214 6.51455 49.0592 7.24506 35.3621C7.9147 21.6041 18.4462 10.1594 33.6044 10.1594C48.7016 10.0986 59.1723 18.9865 59.1723 34.1446Z" fill="#9D9C9D"/>
<path opacity="0.5484" d="M59.0506 33.9617C59.0506 48.9981 47.8494 61.4168 32.8739 61.4168C17.8984 61.4168 6.81897 49.1198 7.42773 35.3618C8.09736 21.6039 18.6289 10.1592 33.6653 10.1592C48.7017 10.1592 59.0506 18.9862 59.0506 33.9617Z" fill="#979697"/>
<path opacity="0.5806" d="M58.9287 33.8402C58.9287 48.7548 47.8493 61.2344 32.9347 61.2344C18.02 61.2344 7.00147 49.181 7.61023 35.423C8.21899 21.7259 18.8114 10.2812 33.726 10.2812C48.6407 10.2812 58.9287 18.9256 58.9287 33.8402Z" fill="#919091"/>
<path opacity="0.6129" d="M58.8069 33.7186C58.8069 48.5114 47.8492 60.991 33.0563 60.991C18.2635 60.991 7.30577 49.1811 7.85366 35.484C8.40154 21.7869 19.0548 10.3422 33.8477 10.3422C48.6406 10.403 58.8069 18.9257 58.8069 33.7186Z" fill="#8B8A8B"/>
<path opacity="0.6452" d="M58.7463 33.5354C58.7463 48.2065 47.9104 60.747 33.2393 60.747C18.5681 60.747 7.61046 49.2414 8.15835 35.5443C8.64535 21.9081 19.3595 10.4634 34.0307 10.4634C48.6409 10.4634 58.7463 18.8643 58.7463 33.5354Z" fill="#848485"/>
<path opacity="0.6774" d="M58.6245 33.4143C58.6245 47.9637 47.9103 60.5041 33.3001 60.5041C18.7507 60.5041 7.85389 49.2421 8.3409 35.6058C8.82791 21.9696 19.5421 10.5249 34.0915 10.5249C48.6408 10.5858 58.6245 18.8649 58.6245 33.4143Z" fill="#7E7E7F"/>
<path opacity="0.7097" d="M58.5026 33.2924C58.5026 47.72 47.8493 60.3213 33.4217 60.3213C18.994 60.3213 8.15811 49.3636 8.52337 35.7274C8.9495 22.0912 19.7246 10.6465 34.1522 10.6465C48.6407 10.6465 58.5026 18.8647 58.5026 33.2924Z" fill="#787779"/>
<path opacity="0.7419" d="M58.381 33.1704C58.381 47.4762 47.8494 60.0776 33.5436 60.0776C19.2377 60.0776 8.40177 49.3634 8.76702 35.788C9.13228 22.2127 19.9682 10.768 34.2741 10.768C48.6408 10.768 58.381 18.8036 58.381 33.1704Z" fill="#727173"/>
<path opacity="0.7742" d="M58.2591 32.9875C58.2591 47.1716 47.8493 59.8338 33.6652 59.8338C19.4811 59.8338 8.70606 49.424 9.01044 35.8487C9.31482 22.2733 20.2116 10.8895 34.3957 10.8895C48.5799 10.8286 58.2591 18.8034 58.2591 32.9875Z" fill="#6C6B6D"/>
<path opacity="0.8065" d="M58.1374 32.8665C58.1374 46.9898 47.8494 59.5911 33.7261 59.5911C19.6029 59.5911 8.88871 49.4248 9.19309 35.9103C9.49747 22.335 20.3943 10.9512 34.4566 10.9512C48.5799 10.9512 58.1374 18.7433 58.1374 32.8665Z" fill="#666567"/>
<path opacity="0.8387" d="M58.0155 32.7441C58.0155 46.7456 47.8492 59.4078 33.8478 59.4078C19.8463 59.4078 9.19296 49.5459 9.43646 35.9706C9.67997 22.4561 20.6377 11.0723 34.5783 11.0723C48.5798 11.0723 58.0155 18.7426 58.0155 32.7441Z" fill="#605F60"/>
<path opacity="0.871" d="M57.8939 32.5615C57.8939 46.4412 47.8494 59.1035 33.9697 59.1035C20.0899 59.1035 9.43663 49.485 9.61926 35.9706C9.80188 22.4561 20.7596 11.0723 34.6393 11.0723C48.5799 11.1331 57.8939 18.6818 57.8939 32.5615Z" fill="#5A595A"/>
<path opacity="0.9032" d="M57.8331 32.4403C57.8331 46.1983 47.9103 58.9214 34.1523 58.9214C20.3943 58.9214 9.80189 49.6073 9.92365 36.0929C10.0454 22.6392 21.064 11.2554 34.8219 11.2554C48.5799 11.2554 57.8331 18.6823 57.8331 32.4403Z" fill="#535254"/>
<path opacity="0.9355" d="M57.7113 32.3187C57.7113 45.9549 47.8494 58.7389 34.2132 58.7389C20.5769 58.7389 9.98451 49.6684 10.1063 36.2147C10.228 22.7611 21.2466 11.3773 34.8828 11.3773C48.519 11.3165 57.7113 18.6824 57.7113 32.3187Z" fill="#4D4C4E"/>
<path opacity="0.9677" d="M57.5894 32.1358C57.5894 45.6503 47.8493 58.4343 34.3348 58.4343C20.8203 58.4343 10.2888 49.6681 10.3496 36.2145C10.3496 22.8218 21.4899 11.438 35.0044 11.438C48.5189 11.438 57.5894 18.6214 57.5894 32.1358Z" fill="#474648"/>
<path d="M57.4676 32.0138C57.4676 45.4065 47.8492 58.2514 34.4565 58.2514C21.0638 58.2514 10.5322 49.7287 10.5322 36.336C10.5322 22.9433 21.6725 11.5595 35.0653 11.5595C48.5189 11.4986 57.4676 18.6211 57.4676 32.0138Z" fill="#414042"/>
<path d="M60.9985 34.5706C60.9985 49.4852 48.8842 61.5996 33.9695 61.5996C19.0549 61.5996 7.00146 49.4852 7.00146 34.5706C7.00146 19.656 19.0549 7.60254 33.9695 7.60254C48.8842 7.60254 60.9985 19.656 60.9985 34.5706Z" fill="url(#paint2_radial_127_3687)"/>
<defs>
<radialGradient id="paint0_radial_127_3687" cx="0" cy="0" r="1" gradientUnits="userSpaceOnUse" gradientTransform="translate(61.2831 1.22244) scale(138.759)">
<stop stop-color="white"/>
<stop offset="0.2588" stop-color="#FCFCFC"/>
<stop offset="0.4706" stop-color="#F2F2F2"/>
<stop offset="0.6659" stop-color="#E0E0E1"/>
<stop offset="0.85" stop-color="#C9C9C9"/>
<stop offset="1" stop-color="#AFAFB0"/>
</radialGradient>
<radialGradient id="paint1_radial_127_3687" cx="0" cy="0" r="1" gradientUnits="userSpaceOnUse" gradientTransform="translate(6.83693 64.1997) scale(77.5647)">
<stop stop-color="white"/>
<stop offset="0.2588" stop-color="#FCFCFC"/>
<stop offset="0.4706" stop-color="#F2F2F2"/>
<stop offset="0.6659" stop-color="#E0E0E1"/>
<stop offset="0.85" stop-color="#C9C9C9"/>
<stop offset="1" stop-color="#AFAFB0"/>
</radialGradient>
<radialGradient id="paint2_radial_127_3687" cx="0" cy="0" r="1" gradientUnits="userSpaceOnUse" gradientTransform="translate(56.3508 13.1027) scale(65.4879)">
<stop stop-color="white"/>
<stop offset="0.2588" stop-color="#FCFCFC"/>
<stop offset="0.4706" stop-color="#F2F2F2"/>
<stop offset="0.6659" stop-color="#E0E0E1"/>
<stop offset="0.85" stop-color="#C9C9C9"/>
<stop offset="1" stop-color="#AFAFB0"/>
</radialGradient>
</defs>
</svg>
